<?xml version="1.0" encoding="UTF-8"?>
<!DOCTYPE svg PUBLIC "-//W3C//DTD SVG 1.1//EN" "http://www.w3.org/Graphics/SVG/1.1/DTD/svg11.dtd">
<svg xmlns="http://www.w3.org/2000/svg" version="1.1" width="1024px" height="1024px" style="shape-rendering:geometricPrecision; text-rendering:geometricPrecision; image-rendering:optimizeQuality; fill-rule:evenodd; clip-rule:evenodd" xmlns:xlink="http://www.w3.org/1999/xlink">
<g><path style="opacity:0.972" fill="#000000" d="M 423.5,53.5 C 449.801,54.4732 476.135,54.8066 502.5,54.5C 502.5,94.5 502.5,134.5 502.5,174.5C 537.513,174.207 572.513,174.207 607.5,174.5C 608.279,189.519 608.946,204.852 609.5,220.5C 609.333,223.5 609.167,226.5 609,229.5C 608.5,230 608,230.5 607.5,231C 572.168,231.5 536.835,231.667 501.5,231.5C 500.921,433.427 499.754,634.76 498,835.5C 497,836.167 496,836.833 495,837.5C 483.894,860.045 473.061,882.712 462.5,905.5C 461.562,906.553 460.395,907.22 459,907.5C 456.239,904.645 453.572,901.645 451,898.5C 442.798,876.887 433.631,855.72 423.5,835C 424.146,797.541 424.48,759.874 424.5,722C 423.993,558.496 423.326,394.996 422.5,231.5C 384.832,231.333 347.165,231.5 309.5,232C 306.006,234.253 304.006,233.253 303.5,229C 304.654,211.193 305.321,193.36 305.5,175.5C 344.5,175.5 383.5,175.5 422.5,175.5C 422.173,134.761 422.506,94.0942 423.5,53.5 Z"/></g>
<g><path style="opacity:0.958" fill="#000000" d="M 229.5,175.5 C 248.5,175.5 267.5,175.5 286.5,175.5C 286.286,177.144 286.62,178.644 287.5,180C 286.572,196.204 285.739,212.704 285,229.5C 284.5,230 284,230.5 283.5,231C 239.816,231.18 195.649,230.68 151,229.5C 150.667,229.833 150.333,230.167 150,230.5C 145.065,226.569 140.399,222.236 136,217.5C 126,206.167 116,194.833 106,183.5C 105.503,181.19 105.337,178.857 105.5,176.5C 147.003,176.832 188.337,176.499 229.5,175.5 Z"/></g>
<g><path style="opacity:0.014" fill="#000000" d="M 294.5,175.5 C 295.525,175.897 295.692,176.563 295,177.5C 294.536,176.906 294.369,176.239 294.5,175.5 Z"/></g>
<g><path style="opacity:0.014" fill="#000000" d="M 300.5,175.5 C 301.788,177.035 301.788,178.701 300.5,180.5C 299.334,178.833 299.334,177.166 300.5,175.5 Z"/></g>
<g><path style="opacity:1" fill="#3a3a3a" d="M 456.5,174.5 C 457.209,173.596 458.209,173.263 459.5,173.5C 459.83,189.675 459.496,205.675 458.5,221.5C 458.5,221.167 458.5,220.833 458.5,220.5C 459.151,204.797 458.484,189.464 456.5,174.5 Z"/></g>
<g><path style="opacity:1" fill="#3d3d3d" d="M 467.5,174.5 C 466.169,181.636 465.503,189.136 465.5,197C 465.503,204.864 466.169,212.364 467.5,219.5C 467.294,221.549 466.461,221.883 465,220.5C 464.5,204.837 464.333,189.17 464.5,173.5C 465.791,173.263 466.791,173.596 467.5,174.5 Z"/></g>
<g><path style="opacity:1" fill="#7c7c7c" d="M 454.5,176.5 C 454.167,177.167 453.833,177.833 453.5,178.5C 452.833,178.5 452.167,178.5 451.5,178.5C 451.973,177.094 452.973,176.427 454.5,176.5 Z"/></g>
<g><path style="opacity:1" fill="#ababab" d="M 456.5,174.5 C 458.484,189.464 459.151,204.797 458.5,220.5C 456.62,220.771 455.287,220.104 454.5,218.5C 455.496,218.414 456.329,218.748 457,219.5C 457.833,205.488 457.666,191.488 456.5,177.5C 455.583,178.127 454.583,178.461 453.5,178.5C 453.833,177.833 454.167,177.167 454.5,176.5C 454.833,175.5 455.5,174.833 456.5,174.5 Z"/></g>
<g><path style="opacity:1" fill="#b3b3b3" d="M 467.5,174.5 C 468.262,176.262 469.596,177.262 471.5,177.5C 471.973,178.906 472.973,179.573 474.5,179.5C 474.842,180.338 475.508,180.672 476.5,180.5C 476.833,181.167 477.167,181.833 477.5,182.5C 473.968,181.267 470.468,179.933 467,178.5C 466.184,192.87 466.351,205.204 467.5,215.5C 468.833,215.5 470.167,215.5 471.5,215.5C 470.211,216.637 469.211,217.97 468.5,219.5C 468.167,219.5 467.833,219.5 467.5,219.5C 466.169,212.364 465.503,204.864 465.5,197C 465.503,189.136 466.169,181.636 467.5,174.5 Z"/></g>
<g><path style="opacity:1" fill="#4f4f4f" d="M 471.5,177.5 C 473.027,177.427 474.027,178.094 474.5,179.5C 472.973,179.573 471.973,178.906 471.5,177.5 Z"/></g>
<g><path style="opacity:0.974" fill="#000000" d="M 808.5,178.5 C 848.835,178.333 889.168,178.5 929.5,179C 930.146,182.081 930.479,185.248 930.5,188.5C 930.11,204.562 929.277,220.562 928,236.5C 911.244,237.492 894.411,237.825 877.5,237.5C 877.582,426.604 877.082,614.937 876,802.5C 875.5,803 875,803.5 874.5,804C 851.833,804.667 829.167,804.667 806.5,804C 805.614,688.568 805.447,573.068 806,457.5C 789.025,508.757 771.859,559.924 754.5,611C 733.564,612.3 712.564,612.966 691.5,613C 653.167,613.667 614.833,613.667 576.5,613C 553.566,558.463 530.899,503.796 508.5,449C 508.63,447.941 509.13,447.108 510,446.5C 510.311,400.161 509.811,353.827 508.5,307.5C 508.519,298.138 509.019,288.805 510,279.5C 513.696,282.536 516.696,286.203 519,290.5C 557.891,371.286 596.558,452.286 635,533.5C 651.025,534.822 667.025,534.489 683,532.5C 718.704,434.264 754.537,336.098 790.5,238C 776.925,237.824 763.425,237.324 750,236.5C 748.834,217.518 748.334,198.518 748.5,179.5C 768.674,179.83 788.674,179.497 808.5,178.5 Z"/></g>
<g><path style="opacity:0.007" fill="#000000" d="M 291.5,180.5 C 292.077,179.227 292.743,179.227 293.5,180.5C 293.03,181.463 292.363,181.463 291.5,180.5 Z"/></g>
<g><path style="opacity:1" fill="#fbfbfb" d="M 454.5,218.5 C 454.5,218.167 454.5,217.833 454.5,217.5C 453.432,214.925 451.765,212.758 449.5,211C 444.346,208 439.346,204.833 434.5,201.5C 433.026,197.149 433.693,193.149 436.5,189.5C 439.884,189.136 442.884,187.803 445.5,185.5C 447.523,183.147 449.523,180.814 451.5,178.5C 452.167,178.5 452.833,178.5 453.5,178.5C 454.583,178.461 455.583,178.127 456.5,177.5C 457.666,191.488 457.833,205.488 457,219.5C 456.329,218.748 455.496,218.414 454.5,218.5 Z"/></g>
<g><path style="opacity:1" fill="#fafafa" d="M 477.5,182.5 C 477.574,184.411 478.574,185.578 480.5,186C 480.167,186.333 479.833,186.667 479.5,187C 483.009,188.759 486.675,189.926 490.5,190.5C 491.75,193.006 492.416,195.673 492.5,198.5C 489.5,199.833 486.5,201.167 483.5,202.5C 483.5,203.5 483.5,204.5 483.5,205.5C 481.473,205.338 479.473,205.505 477.5,206C 475.158,208.376 472.825,210.709 470.5,213C 471.252,213.671 471.586,214.504 471.5,215.5C 470.167,215.5 468.833,215.5 467.5,215.5C 466.351,205.204 466.184,192.87 467,178.5C 470.468,179.933 473.968,181.267 477.5,182.5 Z"/></g>
<g><path style="opacity:0.992" fill="#393939" d="M 476.5,180.5 C 479.513,180.581 481.513,181.914 482.5,184.5C 480.716,184.107 479.05,183.441 477.5,182.5C 477.167,181.833 476.833,181.167 476.5,180.5 Z"/></g>
<g><path style="opacity:0.996" fill="#6f6f6f" d="M 446.5,181.5 C 443.433,184.574 440.1,187.241 436.5,189.5C 435.833,189.5 435.167,189.5 434.5,189.5C 438.202,186.479 442.202,183.812 446.5,181.5 Z"/></g>
<g><path style="opacity:0.996" fill="#505050" d="M 482.5,184.5 C 484.027,184.427 485.027,185.094 485.5,186.5C 483.973,186.573 482.973,185.906 482.5,184.5 Z"/></g>
<g><path style="opacity:1" fill="#d2d2d2" d="M 477.5,182.5 C 479.05,183.441 480.716,184.107 482.5,184.5C 482.973,185.906 483.973,186.573 485.5,186.5C 486.486,188.408 488.152,189.408 490.5,189.5C 490.5,189.833 490.5,190.167 490.5,190.5C 486.675,189.926 483.009,188.759 479.5,187C 479.833,186.667 480.167,186.333 480.5,186C 478.574,185.578 477.574,184.411 477.5,182.5 Z"/></g>
<g><path style="opacity:1" fill="#c6c6c6" d="M 451.5,178.5 C 449.523,180.814 447.523,183.147 445.5,185.5C 442.884,187.803 439.884,189.136 436.5,189.5C 440.1,187.241 443.433,184.574 446.5,181.5C 447.899,180.11 449.566,179.11 451.5,178.5 Z"/></g>
<g><path style="opacity:0.996" fill="#606060" d="M 485.5,186.5 C 487.674,186.75 489.341,187.75 490.5,189.5C 488.152,189.408 486.486,188.408 485.5,186.5 Z"/></g>
<g><path style="opacity:0.996" fill="#6f6f6f" d="M 434.5,189.5 C 434.027,190.906 433.027,191.573 431.5,191.5C 431.973,190.094 432.973,189.427 434.5,189.5 Z"/></g>
<g><path style="opacity:0.996" fill="#646464" d="M 490.5,190.5 C 490.5,190.167 490.5,189.833 490.5,189.5C 492.027,189.427 493.027,190.094 493.5,191.5C 492.391,191.443 491.391,191.11 490.5,190.5 Z"/></g>
<g><path style="opacity:0.996" fill="#9f9f9f" d="M 493.5,191.5 C 494.5,191.833 495.167,192.5 495.5,193.5C 495.784,195.415 495.451,197.081 494.5,198.5C 494.552,196.097 494.219,193.764 493.5,191.5 Z"/></g>
<g><path style="opacity:1" fill="#757575" d="M 431.5,191.5 C 430.542,192.962 429.376,194.295 428,195.5C 427.505,197.473 427.338,199.473 427.5,201.5C 424.741,196.963 426.075,193.63 431.5,191.5 Z"/></g>
<g><path style="opacity:0.996" fill="#878787" d="M 427.5,201.5 C 429.795,202.136 431.461,203.469 432.5,205.5C 429.937,205.269 428.27,203.935 427.5,201.5 Z"/></g>
<g><path style="opacity:1" fill="#dbdbdb" d="M 490.5,190.5 C 491.391,191.11 492.391,191.443 493.5,191.5C 494.219,193.764 494.552,196.097 494.5,198.5C 487.916,202.747 481.916,207.747 476.5,213.5C 474.716,213.893 473.05,214.559 471.5,215.5C 471.586,214.504 471.252,213.671 470.5,213C 472.825,210.709 475.158,208.376 477.5,206C 479.473,205.505 481.473,205.338 483.5,205.5C 483.5,204.5 483.5,203.5 483.5,202.5C 486.5,201.167 489.5,199.833 492.5,198.5C 492.416,195.673 491.75,193.006 490.5,190.5 Z"/></g>
<g><path style="opacity:0.996" fill="#686868" d="M 495.5,193.5 C 496.622,195.288 496.789,197.288 496,199.5C 489.324,204.023 482.824,208.689 476.5,213.5C 481.916,207.747 487.916,202.747 494.5,198.5C 495.451,197.081 495.784,195.415 495.5,193.5 Z"/></g>
<g><path style="opacity:0.996" fill="#626262" d="M 432.5,205.5 C 434.027,205.427 435.027,206.094 435.5,207.5C 433.973,207.573 432.973,206.906 432.5,205.5 Z"/></g>
<g><path style="opacity:0.996" fill="#656565" d="M 435.5,207.5 C 436.167,207.5 436.833,207.5 437.5,207.5C 438.167,208.5 438.833,209.5 439.5,210.5C 437.596,210.262 436.262,209.262 435.5,207.5 Z"/></g>
<g><path style="opacity:1" fill="#bebebe" d="M 437.5,207.5 C 441.174,207.707 443.84,209.374 445.5,212.5C 444.833,212.5 444.167,212.5 443.5,212.5C 442.167,211.833 440.833,211.167 439.5,210.5C 438.833,209.5 438.167,208.5 437.5,207.5 Z"/></g>
<g><path style="opacity:1" fill="#e4e4e4" d="M 434.5,189.5 C 435.167,189.5 435.833,189.5 436.5,189.5C 433.693,193.149 433.026,197.149 434.5,201.5C 439.346,204.833 444.346,208 449.5,211C 451.765,212.758 453.432,214.925 454.5,217.5C 452.442,216.067 450.108,215.4 447.5,215.5C 446.833,214.5 446.167,213.5 445.5,212.5C 443.84,209.374 441.174,207.707 437.5,207.5C 436.833,207.5 436.167,207.5 435.5,207.5C 435.027,206.094 434.027,205.427 432.5,205.5C 431.461,203.469 429.795,202.136 427.5,201.5C 427.338,199.473 427.505,197.473 428,195.5C 429.376,194.295 430.542,192.962 431.5,191.5C 433.027,191.573 434.027,190.906 434.5,189.5 Z"/></g>
<g><path style="opacity:0.996" fill="#6a6a6a" d="M 443.5,212.5 C 444.167,212.5 444.833,212.5 445.5,212.5C 446.167,213.5 446.833,214.5 447.5,215.5C 445.596,215.262 444.262,214.262 443.5,212.5 Z"/></g>
<g><path style="opacity:0.996" fill="#555555" d="M 476.5,213.5 C 474.14,215.853 471.473,217.853 468.5,219.5C 469.211,217.97 470.211,216.637 471.5,215.5C 473.05,214.559 474.716,213.893 476.5,213.5 Z"/></g>
<g><path style="opacity:0.996" fill="#737373" d="M 447.5,215.5 C 450.108,215.4 452.442,216.067 454.5,217.5C 454.5,217.833 454.5,218.167 454.5,218.5C 455.287,220.104 456.62,220.771 458.5,220.5C 458.5,220.833 458.5,221.167 458.5,221.5C 457.127,221.657 455.793,221.49 454.5,221C 452.097,219.147 449.764,217.314 447.5,215.5 Z"/></g>
<g><path style="opacity:1" fill="#c1c1c1" d="M 461.5,860.5 C 459.502,723.504 458.835,586.171 459.5,448.5C 459.5,379.833 459.5,311.167 459.5,242.5C 460.833,242.5 462.167,242.5 463.5,242.5C 463.166,448.667 462.5,654.667 461.5,860.5 Z"/></g>
<g><path style="opacity:0.013" fill="#000000" d="M 509.5,273.5 C 511.416,274.665 512.249,276.332 512,278.5C 510.117,277.347 509.284,275.681 509.5,273.5 Z"/></g>
<g><path style="opacity:0.004" fill="#000000" d="M 512.5,273.5 C 513.833,274.167 513.833,274.167 512.5,273.5 Z"/></g>
<g><path style="opacity:0.996" fill="#858585" d="M 459.5,448.5 C 458.835,586.171 459.502,723.504 461.5,860.5C 460.791,861.404 459.791,861.737 458.5,861.5C 458.167,723.666 458.5,585.999 459.5,448.5 Z"/></g>
<g><path style="opacity:0.959" fill="#000000" d="M 260.5,619.5 C 277.17,619.333 293.837,619.5 310.5,620C 345.363,655.196 379.863,690.696 414,726.5C 414.826,758.542 414.659,790.542 413.5,822.5C 410.772,823.94 408.605,823.274 407,820.5C 349.371,755.202 291.371,690.202 233,625.5C 232.28,623.888 232.446,622.388 233.5,621C 242.676,620.83 251.676,620.33 260.5,619.5 Z"/></g>
</svg>
